<?xml version="1.0" encoding="utf-8"?>
<!-- Svg Vector Icons : http://www.onlinewebfonts.com/icon -->
<!DOCTYPE svg PUBLIC "-//W3C//DTD SVG 1.1//EN" "http://www.w3.org/Graphics/SVG/1.1/DTD/svg11.dtd">
<svg version="1.1" xmlns="http://www.w3.org/2000/svg" xmlns:xlink="http://www.w3.org/1999/xlink" x="0px" y="0px" viewBox="0 0 1000 1000" enable-background="new 0 0 1000 1000" xml:space="preserve">
<metadata> Svg Vector Icons : http://www.onlinewebfonts.com/icon </metadata>
<g><g><path d="M500,10C229.8,10,10,229.8,10,500c0,270.2,219.8,490,490,490c270.2,0,490-219.8,490-490C990,229.8,770.2,10,500,10z M724.9,561.1H546.1v163.8c0,23-15.1,41.6-38.1,41.6c-23,0-38.1-18.6-38.1-41.6V561.1H275.1c-23,0-41.7-15.1-41.7-38.1c0-23,18.6-38.1,41.7-38.1h194.8V275.1c0-23,15.1-41.7,38.1-41.7c23,0,38.1,18.6,38.1,41.7v209.8h178.8c23,0,41.7,15.1,41.7,38.1C766.6,546,747.9,561.1,724.9,561.1z"/></g><g></g><g></g><g></g><g></g><g></g><g></g><g></g><g></g><g></g><g></g><g></g><g></g><g></g><g></g><g></g></g>
</svg>